<?xml version="1.0" standalone="no"?>
<!DOCTYPE svg PUBLIC "-//W3C//DTD SVG 20010904//EN"
 "http://www.w3.org/TR/2001/REC-SVG-20010904/DTD/svg10.dtd">
<svg version="1.0" xmlns="http://www.w3.org/2000/svg"
 width="607.000000pt" height="607.000000pt" viewBox="0 0 607.000000 607.000000"
 preserveAspectRatio="xMidYMid meet">
<metadata>
Created by potrace 1.14, written by Peter Selinger 2001-2017
</metadata>
<g transform="translate(0.000000,607.000000) scale(0.100000,-0.100000)"
fill="#000000" stroke="none">
<path d="M0 3035 l0 -3035 3035 0 3035 0 0 3035 0 3035 -3035 0 -3035 0 0
-3035z m2940 2642 c0 -18 7 -129 15 -247 30 -420 29 -401 14 -411 -8 -5 -25
-9 -39 -9 -14 0 -54 -9 -88 -20 -35 -11 -67 -20 -71 -20 -4 0 -6 54 -4 119 1
66 0 126 -3 135 -8 21 -48 21 -65 0 -10 -12 -9 -36 5 -131 9 -63 15 -117 13
-119 -9 -10 -173 -54 -183 -50 -8 3 -12 43 -13 118 -2 127 -18 446 -27 554
l-7 72 54 6 c30 4 70 9 90 12 l36 5 7 -86 c8 -92 21 -135 42 -135 26 0 29 67
12 205 -3 23 22 29 140 32 l72 2 0 -32z m461 -54 c68 -71 84 -129 84 -308 0
-134 -1 -143 -28 -197 -16 -32 -46 -75 -67 -96 -37 -36 -42 -38 -113 -40 -71
-1 -75 0 -107 31 -66 64 -105 214 -98 381 5 119 30 180 97 234 55 44 78 52
135 48 44 -3 55 -9 97 -53z m374 -35 c3 -13 12 -62 20 -110 15 -90 31 -128 52
-128 7 0 15 12 19 28 13 60 58 187 68 194 6 4 39 8 73 8 l62 0 5 -42 c12 -92
26 -281 32 -450 l7 -178 -44 0 c-44 1 -126 14 -134 22 -2 2 2 31 10 63 19 80
19 114 -1 122 -27 10 -42 -23 -50 -106 l-6 -77 -82 4 c-44 2 -82 5 -83 6 -1 1
7 35 18 76 25 96 23 125 -11 125 -24 0 -25 -2 -34 -97 l-8 -98 -37 1 c-20 0
-54 3 -75 7 l-40 7 3 70 c2 74 8 129 41 340 11 72 20 147 20 168 0 42 4 44 76
57 83 13 93 12 99 -12z m-1598 0 c21 -26 202 -414 216 -464 8 -27 28 -77 45
-110 l30 -60 -39 -32 c-21 -18 -60 -42 -86 -54 l-47 -21 -29 34 c-16 19 -40
54 -54 79 -37 64 -52 79 -71 73 -33 -11 -42 -36 -42 -115 0 -91 0 -91 -94 -92
l-61 -1 1 65 c7 311 40 656 65 686 11 13 31 17 110 22 28 2 50 -2 56 -10z
m-292 -150 c10 -42 16 -80 13 -83 -3 -4 -48 -13 -99 -21 -142 -22 -139 -21
-139 -52 0 -15 22 -99 49 -186 27 -87 53 -175 56 -197 4 -21 7 -42 8 -45 1 -4
-22 -8 -51 -11 -29 -2 -72 -10 -95 -17 l-44 -13 -27 116 c-16 64 -37 147 -48
184 -20 69 -21 69 -52 63 -66 -12 -180 -24 -188 -20 -4 3 -8 20 -8 37 0 18 -7
66 -15 107 -16 86 -13 92 60 110 22 6 65 20 95 32 74 29 331 77 405 75 l60 -2
20 -77z m2650 25 c44 -9 86 -21 93 -26 7 -6 12 -36 12 -81 0 -39 4 -107 10
-151 5 -44 18 -154 29 -245 12 -91 21 -171 21 -177 0 -17 -70 -17 -172 -1
l-78 11 -2 81 c0 45 0 91 1 102 2 29 -22 48 -46 35 -18 -9 -27 -42 -48 -173
-3 -21 -9 -38 -12 -38 -4 0 -46 10 -94 21 l-88 22 6 51 c3 28 25 110 49 181
25 72 65 192 90 268 l46 137 51 0 c29 0 88 -8 132 -17z m-2777 -757 c48 -18
97 -37 110 -41 13 -4 28 -18 34 -31 6 -14 27 -34 46 -46 31 -19 32 -22 16 -31
-11 -5 -21 -11 -23 -13 -2 -2 2 -17 9 -34 16 -39 8 -47 -24 -26 -24 15 -56 22
-56 11 0 -3 7 -17 16 -30 16 -24 16 -25 -7 -23 -25 3 -27 -5 -14 -49 6 -18 2
-25 -19 -33 -14 -5 -26 -17 -26 -27 -1 -33 -70 57 -77 99 -3 21 -18 56 -34 78
-29 40 -30 64 -2 74 24 9 10 92 -19 117 -47 39 -62 19 -27 -37 17 -28 18 -34
6 -34 -9 0 -17 -5 -19 -10 -2 -7 -15 -5 -34 5 -42 21 -54 72 -23 98 31 25 68
21 167 -17z m1592 5 c74 -6 182 -17 240 -26 223 -35 272 -44 276 -48 12 -12
-65 -117 -86 -117 -5 0 -19 -18 -30 -39 -19 -38 -19 -40 -1 -62 17 -21 17 -23
-1 -41 -10 -10 -18 -27 -18 -38 0 -14 -17 -28 -60 -50 -66 -33 -80 -52 -61
-82 10 -16 8 -23 -9 -45 -11 -14 -20 -34 -20 -44 0 -13 -12 -22 -40 -30 -35
-11 -40 -16 -40 -43 l-1 -31 -18 22 c-10 12 -21 19 -24 16 -4 -3 -20 0 -36 7
-35 14 -111 5 -111 -14 0 -7 24 -18 55 -25 39 -9 63 -21 83 -43 15 -16 46 -48
68 -71 23 -23 47 -60 54 -82 17 -56 27 -63 40 -29 15 38 5 90 -26 136 -13 21
-24 44 -24 53 0 8 -9 15 -19 15 -18 0 -19 2 -6 26 7 14 27 35 44 45 17 10 31
26 31 34 0 9 16 23 36 31 35 15 36 17 31 55 -3 22 -1 39 5 39 23 0 118 73 118
91 0 16 6 18 53 15 28 -2 55 -5 58 -5 10 -2 79 -121 79 -137 0 -8 -9 -34 -21
-58 -23 -49 -17 -74 27 -108 13 -10 27 -38 34 -67 11 -47 21 -60 115 -164 19
-21 39 -46 44 -55 7 -14 85 -123 118 -167 5 -5 14 -22 21 -36 8 -14 27 -41 43
-60 16 -19 51 -77 76 -129 43 -89 47 -101 51 -192 5 -108 -1 -148 -22 -148
-10 0 -19 -20 -26 -57 -7 -32 -18 -65 -25 -73 -7 -8 -16 -30 -20 -47 -3 -18
-15 -39 -25 -46 -10 -7 -39 -41 -65 -75 -26 -34 -65 -73 -88 -87 -41 -25 -42
-25 -13 -25 29 0 36 6 172 152 19 20 34 43 34 51 0 8 9 26 21 41 11 14 25 42
30 60 7 25 14 33 27 30 29 -7 44 11 67 79 19 57 23 63 33 46 15 -23 38 -25 46
-3 3 9 1 45 -4 82 -10 59 -9 71 11 121 12 31 28 63 36 72 7 8 13 21 13 27 0 7
5 12 10 12 10 0 14 -15 11 -34 -1 -5 3 -22 9 -39 7 -21 7 -34 -1 -43 -6 -8 -9
-21 -5 -29 3 -9 10 -45 16 -80 6 -35 13 -70 16 -78 3 -9 -3 -16 -15 -20 -18
-4 -21 -13 -21 -55 0 -43 -4 -54 -29 -74 -16 -14 -32 -39 -36 -57 -4 -17 -18
-44 -31 -58 -13 -14 -24 -32 -24 -39 0 -23 24 -16 54 15 19 19 34 27 50 24 23
-5 85 43 99 77 5 11 8 12 13 3 9 -21 30 -15 42 12 14 30 33 32 57 5 49 -54 80
11 72 155 -4 95 -4 98 9 57 20 -67 37 -198 30 -237 -6 -31 -9 -33 -26 -23 -29
18 -50 -6 -50 -56 0 -52 -33 -147 -67 -195 -14 -20 -23 -28 -19 -18 18 55 19
70 1 83 -12 9 -23 10 -36 4 -16 -9 -18 -6 -16 31 3 63 -17 59 -63 -13 -22 -35
-40 -56 -40 -48 -1 21 -30 -18 -30 -40 0 -38 -215 -102 -235 -70 -3 6 0 10 8
10 7 0 26 14 42 30 16 17 36 30 46 30 19 0 43 71 37 110 -4 29 -26 38 -35 13
-8 -22 -75 -86 -125 -119 -42 -27 -49 -56 -17 -70 17 -8 2 -14 -78 -34 -118
-30 -140 -29 -140 7 0 18 -11 35 -29 50 -36 28 -37 28 -77 1 -18 -13 -34 -24
-36 -25 -2 -1 2 -9 9 -18 8 -10 26 -14 54 -13 38 3 41 1 44 -24 3 -25 -4 -31
-95 -76 -175 -87 -264 -125 -275 -114 -6 6 -4 29 7 66 9 30 14 60 11 64 -3 5
-20 8 -38 7 -38 -3 -58 10 -58 35 0 10 -7 23 -15 30 -13 11 -29 40 -89 170
-12 25 -24 47 -28 48 -5 2 -8 8 -8 13 0 8 -38 79 -114 210 l-26 46 37 25 c21
14 55 27 75 31 34 5 38 3 63 -35 23 -35 30 -39 53 -33 25 6 26 6 9 -13 -20
-22 -22 -55 -4 -70 7 -6 59 -11 121 -11 88 0 112 -3 125 -16 15 -15 15 -17 -1
-29 -20 -15 -24 -36 -6 -36 18 0 -42 -59 -89 -87 -32 -19 -54 -24 -89 -22 -57
4 -68 -13 -24 -36 26 -13 37 -14 68 -4 83 27 168 111 178 178 4 24 2 46 -3 50
-5 3 -12 14 -16 24 -6 17 -20 19 -142 21 -52 1 -58 13 -29 56 24 36 34 83 21
96 -3 3 -18 -2 -34 -12 -28 -18 -28 -18 -10 2 9 11 17 34 17 51 0 17 8 41 19
54 33 43 50 85 56 140 5 40 4 50 -4 39 -9 -11 -10 -4 -5 30 4 25 7 47 6 50 0
24 -4 30 -13 24 -6 -3 -82 -8 -168 -10 -230 -5 -307 -19 -337 -63 -7 -10 -34
-26 -60 -36 -46 -17 -48 -17 -90 4 -40 19 -44 24 -44 56 0 19 4 35 9 35 5 0
12 19 16 43 7 44 41 167 56 202 5 11 18 31 29 46 l21 25 -23 69 c-13 38 -28
70 -34 72 -20 7 -79 -144 -75 -189 3 -33 -55 -98 -87 -98 -11 0 -27 -6 -34
-13 -7 -8 -33 -26 -57 -41 -46 -29 -45 -28 -25 -108 6 -25 4 -28 -19 -28 -14
0 -29 -4 -32 -10 -3 -5 -13 -10 -22 -10 -9 0 -24 -7 -34 -16 -16 -14 -23 -13
-87 18 l-70 34 15 29 c13 23 14 49 9 127 -6 82 -4 101 10 123 11 16 23 24 32
20 28 -11 172 81 172 110 0 9 24 34 62 63 25 19 65 24 80 9 7 -7 25 -21 41
-31 26 -18 27 -18 27 0 0 26 -34 80 -63 98 -16 11 -43 15 -88 13 l-64 -2 -15
-55 c-17 -63 -63 -120 -90 -113 -15 4 -17 10 -10 34 10 34 -8 49 -52 43 -34
-3 -35 0 -3 38 14 16 25 36 25 44 0 8 4 14 8 14 10 0 42 54 42 71 0 7 -10 3
-25 -11 -35 -33 -32 -12 10 85 26 60 39 80 54 80 11 0 28 9 39 18 19 17 21 17
47 -7 35 -33 58 -33 89 1 19 20 36 27 70 29 25 1 49 5 54 8 5 3 23 0 40 -6 26
-10 34 -9 51 6 19 18 21 18 46 -2 14 -12 46 -30 70 -42 24 -11 51 -32 59 -45
9 -14 21 -25 26 -25 18 0 10 35 -17 75 -41 61 -74 86 -104 81 -18 -4 -32 1
-44 14 -19 21 -75 28 -75 10 0 -6 -11 -3 -24 5 -20 13 -26 14 -37 2 -8 -7 -38
-17 -68 -20 -30 -4 -61 -13 -71 -22 -23 -21 -27 -19 -45 15 -15 30 -47 40 -60
20 -3 -5 -10 -10 -15 -10 -4 0 0 18 11 40 10 21 19 48 19 59 0 26 8 30 79 38
67 6 79 26 20 31 -19 2 -45 11 -58 21 -23 18 -23 19 -7 51 9 18 16 44 16 57 0
42 26 80 61 87 54 10 69 8 62 -11 -5 -14 -1 -15 27 -9 70 14 110 27 110 37 0
6 8 8 18 5 9 -3 78 -10 152 -15z m1494 -21 c25 -12 50 -29 56 -40 13 -24 13
-131 0 -259 -12 -115 -20 -141 -56 -185 -14 -17 -35 -47 -47 -66 -14 -22 -35
-39 -55 -45 -35 -10 -42 -22 -15 -27 24 -4 -39 -74 -85 -93 -44 -19 -61 -19
-82 0 -9 8 -34 21 -56 28 -29 10 -39 20 -40 36 -1 12 -16 34 -33 49 -41 35
-52 106 -27 167 10 23 14 50 11 66 -7 31 4 56 47 112 17 20 27 44 24 52 -14
38 45 118 138 187 34 25 46 28 82 22 26 -4 44 -2 48 5 10 16 38 13 90 -9z
m-1974 -7 c0 -41 -13 -63 -35 -63 -40 0 -55 -11 -55 -40 0 -29 -15 -40 -55
-40 -30 0 -85 -31 -85 -48 0 -7 4 -11 10 -7 5 3 18 0 29 -7 15 -9 23 -9 34 0
12 10 16 9 20 -8 3 -11 2 -33 -2 -48 -6 -22 -14 -28 -45 -30 -47 -4 -54 -21
-27 -72 11 -22 17 -40 12 -40 -5 0 -11 4 -13 8 -1 5 -16 15 -33 23 -21 10 -31
23 -33 42 -4 32 -22 35 -47 7 -11 -12 -25 -18 -36 -15 -11 4 -31 -3 -48 -16
-26 -19 -33 -20 -46 -9 -10 8 -19 10 -23 4 -4 -5 -22 -22 -40 -39 l-33 -30 3
40 c3 37 1 40 -23 43 -22 3 -38 -10 -94 -75 -63 -74 -105 -141 -105 -170 0
-22 62 20 97 65 28 37 33 40 41 25 8 -14 13 -15 26 -4 8 7 20 10 26 6 5 -3 26
7 47 22 20 15 45 27 55 25 10 -2 33 8 51 22 19 14 44 26 57 26 13 0 31 7 41
16 16 15 20 14 40 -5 13 -12 31 -21 41 -21 9 0 22 -9 28 -20 6 -11 20 -20 30
-20 32 0 24 -27 -30 -101 -47 -65 -63 -109 -39 -109 7 0 9 -17 4 -52 -9 -64
-19 -92 -46 -127 -69 -89 -73 -101 -62 -179 6 -40 17 -81 26 -90 17 -20 27
-87 18 -122 -6 -21 -8 -22 -14 -7 -3 9 -11 17 -18 17 -6 0 -8 -7 -5 -15 20
-50 20 -48 -3 -36 -12 7 -26 9 -31 6 -5 -3 -16 9 -24 27 -7 18 -23 43 -35 55
-11 12 -21 25 -21 28 0 3 -11 18 -24 33 -14 15 -33 37 -43 48 -20 23 -73 30
-73 9 0 -7 7 -32 15 -56 17 -48 32 -230 16 -193 -5 12 -15 25 -21 29 -16 10
-26 -3 -12 -17 18 -18 14 -39 -5 -36 -14 2 -19 -6 -23 -37 -3 -24 -8 -35 -13
-28 -4 7 -14 10 -21 7 -7 -3 -39 17 -72 43 l-59 48 -125 6 c-110 4 -130 3
-164 -14 l-39 -19 6 -64 c4 -35 2 -66 -3 -69 -12 -7 -4 -135 9 -148 6 -6 11
-17 11 -24 0 -11 -4 -11 -20 -1 -32 20 -43 -1 -25 -45 14 -33 13 -40 -1 -77
-9 -22 -13 -47 -10 -57 4 -9 1 -20 -6 -24 -10 -6 -9 -16 5 -43 16 -35 12 -47
-10 -25 -14 14 -33 3 -34 -19 -2 -48 -51 177 -52 240 0 38 55 178 70 178 22 0
36 39 25 68 -6 15 -13 48 -16 75 -6 46 -2 52 30 48 28 -3 35 26 18 74 l-16 48
29 23 c15 13 33 22 39 20 5 -2 21 2 34 9 36 19 90 7 127 -27 17 -17 36 -27 41
-24 6 3 22 -8 36 -26 14 -18 28 -30 31 -27 7 8 -58 104 -101 150 l-34 35 17
48 c12 32 27 53 46 62 32 17 35 30 8 39 -25 8 -56 -19 -82 -71 -17 -33 -28
-42 -62 -52 -32 -8 -53 -24 -87 -66 -47 -57 -64 -67 -74 -41 -3 8 -12 15 -20
15 -19 0 -24 18 -17 60 l5 35 6 -40 c3 -27 10 -40 20 -40 11 0 16 15 20 55 7
65 23 93 66 116 18 10 35 26 38 37 2 10 14 21 26 24 37 10 15 28 -41 34 -56 7
-71 -1 -99 -50 -14 -26 -22 -6 -10 25 18 46 103 171 126 184 12 7 27 23 33 36
11 25 31 33 31 12 0 -14 48 -58 64 -58 6 0 4 -5 -4 -10 -8 -5 -25 -7 -37 -4
-26 7 -103 -48 -103 -72 0 -18 25 -18 54 2 13 8 35 14 48 13 60 -5 88 1 88 20
0 25 19 39 66 49 32 6 40 13 42 33 4 30 -11 44 -55 52 -26 5 -36 2 -51 -18
-23 -29 -29 -30 -54 -8 -33 30 -17 115 33 168 16 17 29 38 29 47 0 10 6 21 13
25 8 4 31 32 52 61 22 28 43 52 47 52 4 0 8 6 8 14 0 17 86 106 102 106 6 0
26 11 45 26 35 27 94 54 115 54 7 -1 0 -8 -17 -17 -44 -23 -84 -63 -106 -106
-36 -68 -21 -67 97 10 27 18 57 33 66 33 9 0 19 4 22 9 6 10 64 25 84 22 8 -1
30 5 49 14 19 9 45 14 58 11 26 -7 72 24 61 42 -7 12 -134 8 -184 -7 -18 -6
-43 -6 -55 -2 -19 7 -14 10 28 19 28 6 68 14 90 17 22 4 70 16 107 27 37 11
76 17 88 13 12 -4 26 -2 33 3 12 10 39 19 65 21 6 0 12 -7 12 -16z m1730 9 c0
-4 -14 -16 -30 -25 -54 -32 -153 -131 -190 -190 -36 -56 -38 -58 -44 -32 -6
24 -10 25 -43 19 -39 -7 -38 -10 -16 43 3 7 -2 16 -11 19 -24 9 -19 25 24 70
35 38 75 58 190 97 24 9 120 8 120 -1z m-455 -131 c-19 -22 -19 -40 -1 -47 24
-9 31 -62 10 -85 -11 -12 -14 -23 -8 -28 9 -9 69 -2 126 14 26 7 27 6 21 -29
-7 -42 12 -50 27 -11 5 14 12 25 14 25 8 0 -44 -183 -57 -199 -30 -39 -45 -40
-58 -1 -6 17 -14 30 -18 30 -4 0 -17 -13 -29 -30 -27 -36 -61 -39 -88 -7 -22
25 -58 99 -68 139 -3 15 -13 33 -21 42 -8 8 -15 24 -15 35 0 20 1 20 34 4 44
-21 66 -12 66 27 0 20 5 30 15 30 27 0 16 27 -25 64 -22 20 -40 38 -40 40 0 7
70 12 103 7 26 -3 27 -5 12 -20z m-2501 -96 c-3 -6 15 -40 39 -76 60 -88 65
-98 40 -76 -27 24 -38 22 -53 -10 -12 -26 -13 -27 -20 -8 -4 11 -15 62 -24
113 -9 50 -19 100 -22 110 -3 10 5 5 19 -12 14 -16 23 -34 21 -41z m75 -218
c8 -10 7 -14 -4 -14 -8 0 -16 6 -19 14 -3 7 -2 13 3 13 5 0 14 -6 20 -13z
m2061 -849 c0 -14 -70 -110 -93 -127 -10 -7 -16 -20 -13 -28 3 -8 2 -11 -3 -8
-11 6 -120 -61 -164 -100 -30 -28 -82 -51 -142 -65 -35 -9 -42 -7 -59 13 -16
19 -16 22 -3 25 9 2 20 16 26 32 7 20 18 31 38 35 195 41 285 87 340 175 20
30 40 58 46 62 13 8 27 1 27 -14z m-689 -54 c22 -27 97 -57 124 -50 26 7 33
-2 14 -21 -5 -5 -17 -41 -25 -79 -9 -45 -22 -77 -37 -92 l-24 -23 -46 51 c-46
51 -47 54 -47 119 0 102 12 130 41 95z m339 6 c0 -5 -4 -10 -10 -10 -5 0 -10
5 -10 10 0 6 5 10 10 10 6 0 10 -4 10 -10z m-1595 -83 c39 -79 43 -83 95 -104
36 -15 77 -22 118 -23 34 0 62 -2 62 -5 0 -4 -7 -19 -15 -35 -16 -30 -57 -42
-70 -20 -3 6 -13 10 -21 10 -24 0 -101 58 -181 136 -41 39 -53 58 -53 81 0 29
7 44 19 42 3 0 24 -37 46 -82z m211 36 c-10 -10 -19 5 -10 18 6 11 8 11 12 0
2 -7 1 -15 -2 -18z m2786 -13 c7 0 19 -4 26 -8 14 -9 39 -145 44 -237 3 -56 1
-60 -19 -63 -13 -2 -30 -13 -38 -25 -22 -31 -29 -14 -10 24 16 30 16 36 0 93
-9 34 -24 80 -32 104 -8 23 -13 49 -10 56 3 7 0 24 -7 37 -29 56 -28 62 3 40
16 -12 35 -21 43 -21z m-1282 -14 c0 -3 -4 -8 -10 -11 -5 -3 -10 -1 -10 4 0 6
5 11 10 11 6 0 10 -2 10 -4z m-1244 -23 c31 -41 5 -116 -49 -144 -12 -7 -19
-8 -15 -4 4 4 -2 30 -12 59 -24 61 -23 56 -6 56 7 0 22 11 32 25 22 30 32 31
50 8z m1211 1 c-3 -3 -12 -4 -19 -1 -8 3 -5 6 6 6 11 1 17 -2 13 -5z m-57 -14
c0 -5 -4 -10 -10 -10 -5 0 -10 5 -10 10 0 6 5 10 10 10 6 0 10 -4 10 -10z
m-746 -26 c38 15 41 15 58 -4 10 -11 23 -20 28 -20 5 0 24 -15 43 -33 18 -19
40 -38 48 -43 8 -5 31 -29 50 -53 18 -23 48 -50 64 -58 17 -9 33 -20 36 -25 9
-14 -36 -243 -52 -262 -9 -10 -79 52 -79 70 0 17 -115 112 -157 129 -18 8 -41
28 -51 45 -10 18 -25 30 -37 30 -12 0 -26 5 -32 11 -8 8 -17 8 -31 0 -15 -8
-31 -7 -63 4 -41 15 -43 14 -68 -7 -55 -50 -127 -124 -143 -148 -13 -19 -19
-22 -26 -12 -7 10 -17 7 -45 -12 -20 -14 -37 -24 -37 -22 0 5 29 69 39 86 17
28 71 157 71 168 0 6 23 37 50 68 28 31 50 61 50 66 0 4 18 5 40 2 25 -4 40
-3 40 4 0 22 54 29 109 15 48 -13 59 -13 95 1z m-763 -261 c25 -3 56 -13 69
-23 l23 -18 -21 -40 c-11 -22 -26 -73 -32 -114 -30 -204 -37 -223 -80 -232
-47 -9 -90 -7 -90 3 0 5 9 13 20 16 11 4 18 11 15 16 -4 5 -14 5 -27 -2 -18
-10 -27 -5 -70 38 -63 61 -81 93 -62 111 7 6 22 12 34 12 16 0 20 6 20 34 0
21 6 36 16 40 12 5 14 16 8 65 l-6 58 32 17 c18 9 39 16 47 16 7 0 13 5 13 11
0 7 8 9 23 4 12 -3 43 -9 68 -12z m753 -61 c12 -11 41 -27 65 -36 62 -24 97
-50 163 -120 49 -53 56 -65 51 -91 -8 -47 -35 -77 -104 -117 -35 -20 -69 -40
-74 -45 -6 -4 -34 -19 -62 -33 -29 -14 -53 -29 -53 -33 0 -5 -7 -15 -15 -23
-13 -14 -15 -13 -15 4 0 40 -63 60 -132 42 -91 -24 -86 -23 -64 -6 24 20 15
31 -13 17 -11 -7 -33 -9 -48 -5 -21 4 -24 3 -13 -5 24 -17 6 -22 -45 -12 -51
9 -75 6 -75 -11 0 -6 7 -8 15 -4 8 3 15 1 15 -4 0 -19 -31 -10 -55 16 -34 37
-75 119 -75 151 0 16 8 61 17 102 13 55 26 83 49 108 38 40 63 44 56 8 -8 -45
12 -31 68 48 20 29 44 50 59 53 14 3 37 9 51 13 14 4 67 6 119 5 75 -3 99 -8
115 -22z m-1180 -329 c20 -60 43 -94 59 -87 7 2 25 -23 45 -63 37 -78 68 -121
78 -111 6 6 -73 173 -96 203 -4 6 -10 24 -14 40 -4 17 -13 37 -21 45 -7 8 -15
33 -19 55 -6 37 -4 36 20 -20 14 -33 32 -67 40 -76 8 -8 14 -23 14 -33 0 -23
27 -73 55 -104 32 -35 61 -133 46 -160 -7 -13 -17 -19 -26 -16 -18 7 -20 -7
-3 -24 6 -6 8 -15 4 -19 -7 -8 -39 24 -116 114 -23 27 -37 37 -42 30 -14 -22
-43 8 -56 59 -15 59 -28 324 -17 350 6 14 11 -3 20 -58 7 -42 20 -98 29 -125z
m3455 -176 c-8 -26 -14 -35 -16 -24 -6 23 -20 22 -33 -3 -7 -13 -21 -20 -40
-20 -20 0 -36 -9 -54 -32 l-26 -33 3 37 c4 63 -17 43 -35 -34 -25 -105 -12
-143 35 -101 18 17 19 17 32 0 11 -16 8 -26 -21 -74 -19 -31 -37 -71 -40 -90
-6 -33 -24 -37 -24 -5 0 10 -10 35 -22 57 -19 36 -21 53 -19 186 1 80 -3 185
-9 233 -12 85 -11 89 9 109 l21 21 0 -27 c0 -16 10 -37 23 -50 13 -12 27 -34
30 -48 8 -31 31 -43 55 -28 25 16 76 86 109 149 l28 55 3 -118 c2 -70 -2 -134
-9 -160z m67 222 c-3 -17 -6 -41 -7 -53 -1 -11 -6 -1 -13 24 -9 32 -9 47 -2
52 21 15 28 7 22 -23z m-3271 -63 l30 -16 -45 6 c-53 7 -80 28 -80 63 l0 25
33 -31 c17 -17 46 -38 62 -47z m2893 -46 c-2 -16 0 -31 6 -33 12 -4 14 -253 3
-384 -3 -40 -1 -73 3 -73 11 0 5 -236 -6 -265 -4 -11 -29 -52 -56 -92 -26 -40
-48 -76 -48 -82 0 -5 -3 -11 -7 -13 -5 -2 -18 -21 -30 -43 -12 -22 -27 -39
-33 -37 -6 1 -8 -3 -4 -9 3 -6 3 -14 -2 -18 -5 -3 -14 -15 -20 -25 -9 -18
-111 -64 -143 -65 -8 -1 4 11 25 25 21 14 51 37 66 51 14 14 31 22 37 19 6 -4
9 -1 6 6 -3 7 6 26 20 42 14 16 25 32 25 35 0 3 10 17 23 31 12 14 31 42 41
62 11 20 23 35 28 32 4 -3 5 1 2 9 -2 7 0 26 6 41 29 77 45 280 35 451 -3 60
-3 60 4 10 9 -56 14 -51 11 10 -1 22 -6 42 -11 45 -4 3 -15 37 -23 75 -8 39
-17 77 -20 85 -12 40 -16 71 -7 66 10 -7 25 24 15 33 -4 3 -9 0 -11 -6 -6 -17
-23 -16 -23 1 0 18 30 30 44 16 17 -17 29 -11 15 7 -10 11 -10 14 -1 9 6 -4
12 -2 12 3 0 6 5 11 11 11 7 0 10 -12 7 -30z m-307 -55 c-22 -24 -60 -83 -83
-130 -40 -81 -44 -85 -75 -85 -18 0 -55 -9 -83 -20 -65 -26 -69 -25 -67 8 2
25 -1 27 -30 24 -18 -1 -33 2 -33 8 0 19 -23 10 -52 -21 -29 -30 -115 -89
-130 -89 -4 0 -8 9 -8 20 0 33 -34 21 -100 -35 -19 -16 -52 -39 -73 -50 -20
-11 -37 -23 -37 -27 0 -5 -4 -8 -10 -8 -5 0 -10 14 -10 30 0 19 -6 33 -16 37
-18 7 -50 -10 -47 -25 1 -5 -12 -24 -28 -43 -21 -24 -27 -27 -19 -11 16 32 3
42 -19 14 -10 -14 -23 -21 -33 -17 -11 5 -17 -2 -21 -25 -7 -30 -8 -31 -51
-26 -34 4 -45 2 -50 -10 -5 -13 -9 -14 -21 -4 -18 15 -68 4 -62 -13 2 -7 14
-11 26 -10 22 3 26 -4 13 -25 -5 -7 -17 -10 -28 -6 -11 3 -14 2 -8 -3 7 -4 11
-19 10 -33 -1 -23 9 -39 27 -40 4 0 7 7 7 15 0 8 16 29 35 48 28 27 40 33 66
29 34 -5 49 8 49 46 0 20 4 23 37 20 32 -3 40 1 60 31 13 19 23 28 23 20 0 -8
4 -21 10 -29 7 -11 13 -12 32 -2 41 21 112 44 158 51 41 7 103 35 237 110 l52
29 3 -27 c4 -31 12 -31 95 3 34 15 76 29 94 33 29 5 32 4 25 -13 -4 -10 -19
-61 -32 -111 -56 -219 -58 -508 -5 -647 7 -16 10 -30 9 -32 -3 -2 -94 37 -130
57 -10 5 -25 9 -34 9 -9 0 -58 16 -110 35 -51 19 -104 35 -118 35 -14 0 -28 5
-31 10 -4 6 -10 8 -15 5 -12 -7 -124 17 -132 29 -6 8 -8 8 -8 0 0 -8 -13 -9
-42 -4 -24 5 -46 6 -50 4 -4 -2 -12 4 -18 13 -9 15 -10 15 -4 -6 5 -18 3 -22
-7 -15 -8 4 -22 9 -32 9 -10 1 -32 12 -50 25 -18 14 -26 17 -18 7 10 -13 11
-17 1 -17 -7 0 -19 8 -26 18 -10 12 -13 13 -9 2 7 -20 -31 -24 -39 -4 -6 16
-46 20 -46 4 0 -5 7 -10 15 -10 8 0 15 -4 15 -10 0 -14 -13 -13 -28 2 -10 10
-14 10 -21 0 -6 -10 -14 -9 -37 3 -16 8 -36 15 -44 15 -8 1 -2 7 15 14 18 7
25 15 18 19 -6 4 -14 3 -18 -3 -3 -5 -17 -10 -29 -10 -13 0 -29 -7 -36 -15 -7
-8 -23 -15 -37 -15 -13 0 -33 -4 -43 -10 -15 -8 -23 -5 -39 16 -12 15 -21 32
-21 38 0 6 -14 22 -30 35 -16 13 -27 27 -24 33 3 5 13 4 22 -4 15 -11 15 -11
4 4 -11 14 -10 17 5 21 14 4 13 5 -4 6 -13 0 -23 -4 -23 -9 0 -6 -10 -15 -22
-20 -13 -5 -18 -9 -11 -9 6 -1 9 -10 6 -22 -6 -20 -7 -20 -19 7 -12 25 -13 25
-7 4 7 -27 8 -37 5 -87 -2 -27 -6 -33 -24 -34 -21 -1 -21 -2 -3 -6 48 -12 35
-23 -26 -23 -35 0 -102 -3 -148 -7 -63 -5 -82 -3 -77 5 9 15 -9 15 -35 2 -11
-7 -19 -7 -19 -1 0 5 6 11 13 14 6 2 -5 9 -27 17 -25 8 -34 15 -26 20 15 9 6
40 -11 40 -6 0 -8 -7 -5 -17 6 -15 4 -15 -14 2 -21 19 -28 41 -8 29 6 -4 4 3
-5 17 -22 30 -21 39 1 39 10 0 23 5 30 12 7 7 12 8 12 3 0 -6 5 -3 11 5 8 11
9 6 5 -22 -3 -23 0 -43 8 -50 18 -19 27 -48 15 -48 -6 0 -9 -6 -7 -12 3 -7 9
-13 14 -13 5 0 15 -4 22 -8 24 -16 31 4 12 36 -23 37 -27 60 -5 31 8 -10 15
-14 15 -7 0 6 3 19 7 29 4 12 3 15 -5 10 -8 -5 -12 3 -12 23 0 17 -5 31 -12
31 -6 0 -8 3 -5 7 7 7 -38 33 -58 33 -7 0 -25 -7 -41 -14 -15 -8 -31 -13 -36
-10 -5 3 -7 0 -6 -6 3 -13 -78 -45 -136 -54 -28 -5 -35 -2 -39 15 -7 28 -31
14 -91 -52 -43 -47 -60 -89 -36 -89 6 0 10 6 10 13 0 17 59 97 71 97 5 0 4
-10 -3 -21 -34 -57 -37 -64 -27 -74 6 -6 19 1 36 24 31 39 77 61 114 54 15 -3
37 0 49 7 29 15 36 6 21 -26 -7 -17 -8 -30 -2 -38 5 -6 15 -24 21 -40 9 -24 8
-27 -5 -23 -8 4 -18 0 -23 -8 -4 -8 -20 -16 -35 -17 -15 -1 -27 -6 -27 -10 0
-4 -7 -8 -15 -8 -13 0 -69 -33 -85 -50 -9 -10 -104 -68 -154 -94 -28 -15 -57
-24 -68 -20 -10 3 -18 1 -18 -5 0 -6 6 -11 13 -11 6 -1 -10 -9 -37 -20 -26
-10 -57 -26 -67 -36 -10 -9 -25 -14 -33 -11 -9 4 -18 2 -21 -3 -4 -6 -16 -10
-28 -9 -21 0 -21 1 2 10 13 5 22 12 19 15 -8 7 -58 -17 -53 -26 10 -15 -264
-60 -369 -60 -48 0 -62 4 -77 22 -11 11 -19 27 -19 33 0 7 -6 15 -14 18 -27
11 -114 153 -135 221 -12 38 -24 105 -27 151 -18 229 79 646 174 748 24 25 62
37 62 19 0 -4 20 -21 45 -36 25 -16 45 -32 45 -36 0 -8 109 -94 181 -145 52
-36 124 -65 160 -65 15 0 38 9 52 20 26 20 83 28 72 10 -3 -5 -16 -10 -29 -10
-12 0 -31 -6 -41 -14 -17 -12 -15 -14 31 -24 27 -6 74 -14 104 -17 30 -4 66
-11 80 -17 71 -31 90 -44 90 -63 0 -11 13 -29 29 -39 29 -20 66 -80 64 -103 0
-7 3 -10 8 -8 4 3 11 0 16 -7 17 -27 76 -68 98 -68 30 0 36 26 23 106 -9 51
-8 67 2 77 10 10 12 8 7 -5 -4 -12 -1 -18 9 -18 12 0 13 4 4 21 -14 24 -6 36
13 21 10 -8 20 -7 40 3 18 9 35 11 50 6 12 -5 32 -5 45 0 15 6 31 5 43 -2 11
-6 35 -9 52 -8 38 3 76 -8 95 -28 9 -9 24 -12 38 -9 14 4 24 2 24 -4 0 -5 3
-9 8 -9 23 4 32 -4 32 -26 0 -14 4 -25 10 -25 5 0 6 -8 3 -17 -5 -12 -2 -15
10 -10 11 4 17 1 17 -8 0 -15 53 -45 80 -45 20 0 33 31 31 75 -2 23 0 27 8 15
9 -13 12 -12 24 5 8 10 12 26 9 34 -3 9 -1 12 6 7 7 -4 12 -15 12 -24 0 -15 2
-15 10 -2 6 9 6 18 0 24 -6 6 -10 17 -10 25 0 11 4 10 20 -4 19 -17 20 -17 20
-1 0 9 3 15 8 13 12 -8 31 19 22 33 -5 8 -18 10 -41 4 -42 -10 -121 -6 -134 7
-5 5 -24 9 -43 9 -32 0 -34 -2 -29 -26 4 -25 3 -26 -31 -20 -20 3 -81 27 -136
54 -56 27 -119 55 -141 62 -22 7 -50 19 -61 27 -23 14 -48 91 -38 115 7 16 93
87 131 108 15 8 43 26 61 39 18 13 36 21 38 18 3 -3 10 -24 15 -47 8 -34 6
-48 -7 -67 -22 -34 -6 -47 59 -50 29 -1 80 -5 114 -8 49 -5 70 -3 106 13 25
11 56 18 71 15 14 -3 44 2 67 11 22 9 44 14 49 11 11 -7 50 43 50 63 0 14 -27
41 -42 42 -4 0 -10 -9 -13 -20 -3 -11 -12 -20 -19 -20 -7 0 -26 -10 -41 -22
-20 -15 -39 -21 -65 -19 -24 1 -43 -3 -53 -13 -17 -18 -57 -22 -57 -6 0 15
-37 12 -72 -6 -22 -11 -33 -13 -41 -5 -8 8 -7 11 5 11 8 0 27 9 41 20 14 11
34 20 46 20 11 0 43 23 70 50 l51 51 52 -6 c29 -4 68 -8 86 -9 44 -3 58 -20
77 -91 19 -76 20 -139 0 -155 -8 -7 -15 -8 -15 -3 0 13 -150 10 -175 -4 -25
-14 -125 -15 -125 -2 0 6 -12 8 -27 5 -16 -3 -52 -2 -81 3 -46 7 -53 6 -50 -8
2 -8 18 -19 35 -25 18 -5 35 -17 38 -27 6 -17 17 -19 89 -19 52 0 87 5 95 13
11 10 14 10 18 0 7 -20 40 -15 56 7 12 18 17 19 56 7 l43 -12 -41 -30 c-39
-28 -49 -54 -25 -62 6 -2 30 15 53 37 36 35 47 40 72 35 18 -4 36 -2 44 5 8 6
20 8 26 4 7 -4 9 -3 6 4 -8 13 46 60 76 67 12 2 46 9 76 15 29 6 83 23 120 39
36 16 91 36 121 46 56 18 208 90 335 160 55 30 233 88 289 94 5 1 -10 -19 -33
-44z m112 18 c-6 -16 -4 -16 15 1 38 33 52 15 52 -64 0 -38 -4 -70 -9 -70 -10
0 -21 48 -21 91 0 29 -13 38 -26 18 -5 -8 -9 -8 -14 1 -9 15 -65 -11 -74 -36
-4 -10 -12 -14 -22 -10 -13 5 -14 3 -6 -7 8 -9 4 -32 -15 -85 -25 -70 -45 -87
-51 -46 -3 16 -1 16 7 4 13 -19 14 -1 1 20 -8 12 -10 12 -16 -3 -8 -22 15 -69
29 -60 7 4 8 -6 3 -28 -39 -185 -75 -509 -57 -509 5 0 12 30 16 68 3 37 11 86
16 108 4 23 13 84 19 135 5 52 13 111 16 132 l6 39 19 -21 c17 -18 19 -30 13
-81 -5 -47 -9 -58 -19 -50 -10 8 -15 7 -21 -1 -4 -7 -2 -15 4 -17 7 -2 12 -11
13 -20 0 -14 2 -13 9 3 7 16 9 13 9 -15 0 -19 -4 -58 -8 -87 -4 -29 -4 -50 1
-47 11 7 10 -124 -1 -183 -20 -104 -22 -163 -6 -170 22 -8 64 33 88 87 11 25
39 77 64 116 78 127 97 212 73 336 -6 29 -15 78 -21 108 -20 104 -20 106 -9
90 7 -11 10 -12 10 -2 0 7 -7 21 -16 29 -11 12 -14 26 -9 52 3 20 9 61 13 91
l8 55 12 -53 c14 -63 15 -72 3 -53 -6 10 -9 3 -8 -22 1 -31 3 -33 14 -19 10
14 12 14 13 2 0 -8 3 -26 7 -40 6 -22 5 -24 -10 -11 -15 12 -17 11 -17 -9 0
-13 7 -28 15 -34 10 -7 16 -38 20 -91 19 -259 -2 -373 -92 -515 -30 -47 -67
-98 -82 -113 -34 -38 -108 -80 -125 -74 -22 9 -36 99 -30 181 4 46 3 76 -4 80
-6 4 -12 -26 -16 -82 -7 -82 2 -142 29 -204 5 -13 3 -18 -9 -18 -23 0 -62 88
-83 182 -27 126 -13 415 26 549 30 100 47 140 56 132 4 -5 5 -2 1 5 -8 13 51
148 61 139 2 -3 0 -14 -6 -25 -6 -12 -11 -31 -10 -44 1 -25 4 -19 13 25 4 16
11 25 17 21 7 -4 7 2 -1 16 -10 19 -8 27 17 58 16 19 45 41 64 48 46 17 49 17
42 -3z m-1835 -46 c7 0 11 -5 9 -11 -4 -13 -50 -8 -55 5 -5 14 -29 11 -35 -5
-3 -7 0 -19 6 -25 19 -19 -6 -31 -76 -36 -37 -2 -72 -7 -77 -10 -6 -3 -16 -3
-22 2 -7 4 -28 8 -47 8 -43 0 -58 30 -28 60 11 11 17 14 13 7 -13 -22 -17 -62
-6 -62 5 0 10 9 10 20 0 11 5 20 11 20 5 0 7 -5 4 -10 -3 -6 6 -15 20 -20 35
-13 35 -13 35 10 0 22 38 28 57 9 8 -8 17 -8 33 1 12 6 24 9 28 6 3 -3 0 -6
-6 -6 -7 0 -12 -4 -12 -10 0 -5 14 -10 30 -10 33 0 40 14 13 24 -15 6 -15 8
-3 17 11 8 8 9 -12 5 -16 -4 -28 -4 -28 -1 0 10 67 23 95 18 17 -3 36 -6 43
-6z m1865 -127 c9 -58 15 -113 13 -123 -2 -9 -1 -15 4 -12 4 2 10 -12 14 -33
3 -20 11 -57 17 -82 6 -25 12 -79 13 -120 1 -68 -3 -82 -36 -150 -52 -105
-119 -224 -145 -257 l-22 -28 0 45 c0 25 8 88 18 140 l18 95 14 -32 c12 -25
18 -30 32 -22 9 6 17 15 17 22 0 18 56 158 61 153 2 -2 5 39 6 92 1 67 -1 91
-8 81 -8 -10 -9 -3 -4 24 4 23 2 37 -3 33 -5 -3 -12 33 -15 82 -4 56 -11 90
-20 97 -8 5 -12 16 -10 23 3 6 0 12 -6 12 -6 0 -11 -7 -11 -15 0 -9 -13 -24
-30 -33 -24 -14 -30 -24 -31 -52 0 -29 -2 -32 -10 -15 -6 14 -7 7 -3 -24 6
-42 5 -44 -10 -28 -13 13 -15 24 -7 59 6 23 14 44 19 46 6 2 8 11 6 20 -2 9 2
28 10 42 9 14 20 35 26 48 7 18 17 23 38 20 26 -3 27 -6 45 -108z m-2232 53
c23 -55 42 -73 77 -73 14 0 48 -14 77 -30 51 -29 53 -32 60 -85 7 -63 8 -62
-70 -154 -41 -48 -67 -71 -82 -71 -25 0 -29 10 -12 27 7 7 9 19 6 27 -7 19
-48 21 -65 4 -8 -8 -12 -8 -12 -1 0 6 -13 13 -28 16 -18 4 -33 16 -40 33 -13
28 -7 48 8 25 4 -8 15 -11 24 -8 8 3 18 2 21 -3 15 -25 64 4 65 38 0 17 -49
39 -58 26 -4 -5 -31 -8 -60 -6 -47 4 -55 8 -77 40 -39 57 -30 96 16 71 17 -9
23 -8 30 2 7 11 12 9 24 -8 9 -13 27 -23 40 -23 29 0 50 31 32 49 -9 9 -9 14
3 21 12 8 12 15 -6 52 -20 43 -21 78 -3 78 5 0 19 -21 30 -47z m119 37 c0 -5
-2 -10 -4 -10 -3 0 -8 5 -11 10 -3 6 -1 10 4 10 6 0 11 -4 11 -10z m254 -11
c-8 -14 -51 -11 -57 4 -3 9 5 12 29 9 19 -2 31 -8 28 -13z m-1390 -29 c5 -5
-1 -28 -13 -53 -57 -119 -109 -349 -127 -562 l-6 -80 -15 45 c-30 96 7 461 64
623 17 46 18 47 53 41 19 -4 39 -10 44 -14z m865 -21 c7 -10 21 -19 30 -19 19
0 66 -48 57 -58 -3 -3 -15 3 -27 14 -11 10 -32 19 -47 20 -16 0 -31 9 -37 21
-6 12 -17 29 -25 38 -14 16 -13 17 10 11 14 -5 31 -16 39 -27z m375 -54 l-15
-37 -31 31 c-17 17 -28 34 -26 37 3 3 12 -1 19 -9 20 -20 47 -17 53 5 3 15 1
18 -11 14 -13 -6 -14 -4 -3 9 23 28 32 -7 14 -50z m1970 -42 c3 -21 6 -63 6
-93 0 -31 5 -61 11 -67 19 -19 15 -157 -5 -188 -9 -14 -15 -33 -14 -43 2 -9
-3 -16 -9 -15 -7 2 -12 -5 -10 -16 1 -11 -2 -20 -8 -20 -12 0 -8 60 5 73 15
15 12 36 -5 36 -9 0 -15 -10 -16 -27 -2 -49 -4 -56 -14 -60 -6 -2 -9 44 -7
129 4 154 11 194 35 190 25 -4 21 19 -4 25 -19 5 -20 11 -15 46 12 72 40 88
50 30z m-3403 -164 c-6 -25 -14 -94 -18 -154 l-7 -110 -8 100 c-10 117 -6 156
19 189 10 13 19 23 21 21 1 -1 -2 -22 -7 -46z m1488 -35 c17 -4 31 -10 31 -15
0 -13 -27 -11 -50 3 -15 10 -22 9 -38 -5 -10 -9 -23 -17 -28 -17 -11 1 35 40
46 40 4 0 22 -3 39 -6z m424 -81 c-7 -2 -19 -2 -25 0 -7 3 -2 5 12 5 14 0 19
-2 13 -5z m10 -33 c14 0 17 -9 17 -45 0 -25 -4 -45 -9 -45 -14 0 -59 39 -82
72 l-23 31 40 -6 c21 -4 47 -7 57 -7z m74 -17 c-3 -3 -11 -2 -17 2 -9 6 -9 10
1 16 14 8 27 -7 16 -18z m-701 0 c32 5 34 4 34 -21 0 -15 3 -37 6 -49 11 -39
-25 -28 -73 22 -47 49 -56 73 -22 54 12 -6 37 -9 55 -6z m109 -223 c3 -5 -3
-10 -14 -10 -12 0 -21 5 -21 10 0 6 6 10 14 10 8 0 18 -4 21 -10z m513 -46
c40 -56 40 -56 25 -94 -29 -72 -76 -61 -87 20 -6 43 7 130 19 130 2 0 21 -25
43 -56z m-495 -37 c18 -19 40 -38 49 -43 19 -10 28 -65 12 -71 -29 -10 -104
81 -104 127 0 27 6 26 43 -13z m772 -17 c39 -5 120 -12 180 -15 61 -2 126 -8
145 -13 39 -9 48 -35 13 -40 -30 -4 -29 -10 9 -49 18 -18 27 -33 22 -33 -6 0
-15 5 -21 11 -6 6 -23 9 -39 7 -26 -3 -29 -7 -28 -35 2 -27 -2 -33 -18 -33
-11 0 -47 -11 -81 -24 -34 -14 -74 -28 -89 -31 -34 -9 -59 -36 -98 -112 -32
-63 -58 -81 -129 -89 -27 -3 -68 -38 -77 -66 -6 -21 -53 -24 -104 -7 -24 9
-34 9 -39 0 -6 -9 -14 -9 -35 0 -20 10 -32 10 -45 2 -22 -14 -34 -8 -146 83
-136 109 -209 180 -200 195 5 7 1 17 -10 25 -12 9 -18 25 -17 48 1 20 -4 39
-12 43 -7 4 -18 17 -24 29 -10 18 -8 23 13 32 18 8 25 8 27 -1 8 -30 139 -139
207 -172 103 -50 149 -49 220 8 45 35 128 115 244 235 15 15 29 21 42 17 11
-3 52 -10 90 -15z m467 -51 c107 -21 185 -42 285 -75 107 -37 255 -112 250
-129 -4 -11 -125 -105 -135 -105 -4 0 -6 18 -4 40 5 51 -4 90 -21 90 -8 0 -24
-11 -36 -24 -26 -28 -126 -75 -177 -83 l-36 -6 16 31 c9 17 16 45 16 62 l0 32
-57 -51 c-31 -28 -65 -51 -74 -51 -10 0 -21 -4 -24 -10 -12 -19 -26 -11 -15 9
14 27 13 61 -3 61 -7 0 -23 -13 -35 -29 l-22 -30 -29 30 c-30 30 -30 30 -11
49 11 11 20 33 20 48 0 15 5 33 12 40 9 9 9 18 0 37 -8 18 -9 32 -2 44 5 10 6
21 3 25 -9 9 19 7 79 -5z m-1069 -47 c3 10 10 8 28 -9 18 -16 28 -19 41 -12
12 6 24 6 37 0 14 -8 23 -6 36 9 10 11 27 20 37 20 10 0 21 7 24 15 8 21 27
19 48 -4 17 -19 17 -20 -3 -31 -12 -6 -21 -8 -21 -4 0 4 -11 -3 -25 -16 -14
-14 -36 -25 -48 -25 -13 -1 -28 -5 -35 -9 -19 -12 -113 6 -130 24 -10 10 -26
19 -36 21 -25 5 -41 32 -32 54 6 16 10 15 40 -14 24 -23 35 -29 39 -19z m-266
-24 c-3 -7 -5 -2 -5 12 0 14 2 19 5 13 2 -7 2 -19 0 -25z m-48 -178 l0 -65
-27 53 c-14 28 -32 52 -38 52 -16 0 -34 -54 -34 -101 0 -22 -4 -39 -9 -39 -20
0 -78 30 -95 49 -11 12 -24 21 -30 21 -15 0 -56 -62 -56 -83 0 -9 -2 -17 -5
-17 -11 0 -115 62 -115 69 0 4 48 33 108 65 59 31 138 77 177 100 l70 42 27
-40 c23 -35 28 -51 27 -106z m2207 -98 c62 -46 106 -91 102 -104 -3 -7 -35
-18 -72 -24 -36 -6 -69 -14 -73 -18 -3 -3 -1 -17 5 -31 11 -23 17 -25 80 -25
61 0 71 -3 94 -27 70 -74 98 -186 63 -252 -18 -35 -99 -91 -134 -92 -14 -1
-36 -3 -47 -4 -34 -3 -93 21 -124 50 -33 32 -80 122 -83 160 -2 24 3 29 36 41
35 12 41 12 62 -4 13 -9 31 -29 42 -44 10 -15 25 -30 33 -33 17 -7 40 20 40
47 0 23 -96 118 -120 118 -34 0 -106 38 -133 70 -40 46 -37 96 7 139 67 65
159 78 222 33z m-2720 -118 c43 -3 124 -17 179 -30 55 -13 135 -27 178 -30
l77 -7 0 -52 c0 -29 3 -73 6 -99 l7 -46 -68 0 c-38 0 -96 -5 -131 -11 -50 -9
-63 -15 -68 -32 -10 -40 -28 -239 -22 -259 4 -18 1 -20 -26 -14 -17 3 -51 6
-76 6 l-45 0 7 128 c4 70 12 146 18 170 6 23 8 46 4 49 -3 3 -37 5 -75 4 -38
-1 -81 1 -96 5 -25 6 -27 10 -21 43 4 20 9 65 12 101 8 88 10 93 38 86 12 -3
59 -8 102 -12z m2252 -77 l30 -59 -42 -17 c-22 -10 -65 -26 -93 -35 -63 -21
-70 -29 -49 -61 20 -30 40 -31 135 -5 41 12 77 17 81 13 4 -4 16 -32 28 -61
24 -60 31 -54 -83 -80 -67 -15 -80 -21 -83 -39 -2 -14 5 -27 23 -39 25 -17 54
-16 141 2 31 6 32 5 39 -37 3 -24 9 -52 11 -61 4 -13 -3 -21 -20 -28 -27 -10
-237 -53 -313 -64 -42 -6 -43 -5 -43 21 0 16 -11 69 -25 118 -14 50 -30 131
-35 180 -4 50 -11 119 -15 155 l-7 65 99 34 c54 19 116 42 138 52 22 10 43 15
47 11 4 -4 20 -33 36 -65z m-534 -24 c3 -10 10 -52 17 -93 6 -41 26 -142 44
-225 18 -82 35 -166 37 -185 l3 -35 -74 -8 c-40 -4 -75 -6 -78 -3 -3 2 -11 44
-18 91 -13 92 -34 130 -57 107 -10 -10 -8 -31 10 -100 12 -48 22 -93 22 -99 0
-8 -16 -13 -42 -14 -24 0 -65 -4 -91 -8 -26 -4 -50 -5 -52 -1 -2 4 -7 45 -11
91 -7 92 -15 110 -44 102 -25 -7 -25 -27 0 -123 10 -41 18 -76 16 -78 -2 -2
-33 -7 -68 -12 -36 -5 -72 -12 -82 -16 -15 -6 -16 16 -16 250 l0 255 58 17
c31 9 78 22 103 29 l47 13 4 -66 c5 -75 22 -127 39 -116 7 4 8 36 4 99 l-7 94
38 6 c22 4 71 15 109 24 39 10 73 19 77 20 4 0 9 -7 12 -16z m-776 -30 c123
-28 119 -25 124 -108 3 -39 2 -39 -37 -47 -22 -4 -59 -7 -83 -7 -25 -1 -44 -6
-46 -13 -3 -7 -7 -59 -10 -114 -6 -122 -1 -132 72 -141 58 -7 60 -11 41 -88
l-11 -43 -191 -4 c-106 -2 -193 -4 -193 -3 -1 0 -4 19 -7 42 -5 39 -3 42 26
52 16 6 45 11 63 11 18 0 36 6 41 13 4 6 11 62 14 122 4 61 9 119 11 130 3 19
-4 20 -92 25 -55 3 -94 9 -93 15 0 6 4 44 8 85 11 117 7 114 139 106 61 -4
162 -18 224 -33z"/>
<path d="M3248 5399 c-33 -19 -18 -139 18 -153 19 -7 27 10 35 73 11 78 -8
107 -53 80z"/>
<path d="M2103 5392 c-13 -8 -33 -110 -26 -129 7 -17 89 -15 104 3 7 9 1 29
-21 68 -35 62 -41 68 -57 58z"/>
<path d="M4430 5268 c-25 -54 -25 -80 -1 -109 20 -24 20 -24 35 -4 19 25 41
118 33 139 -12 32 -47 18 -67 -26z"/>
<path d="M1724 4684 c3 -9 6 -20 6 -25 0 -5 9 -9 20 -9 26 0 26 26 1 40 -27
14 -34 13 -27 -6z"/>
<path d="M3095 4603 c-36 -6 -90 -42 -78 -54 4 -4 33 -1 63 7 71 18 83 18 98
-6 9 -14 23 -20 51 -20 22 0 43 -4 46 -10 3 -5 22 -10 41 -10 20 0 65 -12 100
-26 66 -26 94 -26 94 0 0 22 -56 64 -103 77 -23 6 -50 18 -59 26 -18 16 -190
27 -253 16z"/>
<path d="M3676 3968 c-9 -17 -16 -32 -16 -33 0 -1 26 -3 58 -4 31 -1 65 -4 75
-7 15 -5 15 -7 2 -20 -22 -22 -18 -47 9 -73 14 -13 26 -38 28 -55 2 -25 10
-34 43 -49 68 -32 88 -48 76 -60 -20 -20 -12 -46 19 -62 23 -12 33 -27 42 -60
7 -25 17 -44 23 -42 11 4 11 17 1 71 -5 28 -3 34 14 39 34 9 23 42 -30 90 -27
25 -50 53 -50 62 0 10 -16 33 -36 52 -29 27 -34 36 -24 48 19 23 -4 51 -79 95
-89 52 -133 54 -155 8z"/>
<path d="M3340 3780 c0 -5 14 -10 31 -10 27 0 30 -2 19 -15 -11 -13 -7 -18 29
-32 22 -9 41 -22 41 -29 0 -7 12 -22 26 -33 l27 -21 -27 -21 c-14 -11 -26 -27
-26 -34 0 -7 -24 -27 -54 -44 -59 -34 -88 -61 -66 -61 8 0 42 16 78 36 44 23
68 32 75 25 7 -7 19 -6 36 3 42 22 145 11 185 -19 30 -23 66 -26 66 -6 0 5
-29 38 -64 76 -62 67 -64 68 -103 62 -32 -6 -44 -3 -58 13 -10 11 -26 20 -35
20 -10 0 -20 7 -24 15 -3 8 -21 23 -41 32 -21 10 -35 24 -35 35 0 14 -8 18
-40 18 -22 0 -40 -4 -40 -10z"/>
<path d="M4274 3479 c-3 -6 5 -23 20 -37 25 -27 62 -112 48 -112 -11 0 -67 61
-81 88 -7 12 -19 22 -29 22 -9 0 -29 6 -44 14 -22 11 -29 12 -37 2 -6 -7 -8
-16 -4 -19 3 -4 -2 -9 -11 -13 -33 -13 -12 -74 49 -138 23 -25 25 -30 11 -38
-10 -6 -16 -23 -16 -46 0 -20 -9 -57 -20 -81 -21 -45 -19 -61 6 -61 8 0 14
-10 14 -25 0 -22 -4 -24 -37 -22 -35 2 -38 0 -34 -23 1 -14 5 -64 8 -112 5
-93 -7 -139 -31 -119 -17 14 -26 4 -26 -30 0 -20 -11 -36 -36 -57 -30 -25 -35
-35 -30 -55 11 -45 -75 -117 -139 -117 -34 0 -46 12 -25 25 20 12 10 26 -10
15 -11 -6 -18 -15 -15 -20 3 -4 1 -10 -4 -12 -5 -1 -11 -9 -13 -17 -5 -22 93
-26 136 -6 49 23 96 79 96 113 0 18 11 39 30 57 17 16 30 37 30 47 0 12 7 18
23 18 12 0 28 9 35 20 14 24 36 166 28 186 -4 9 4 18 19 24 31 12 32 15 39
108 5 69 4 73 -15 67 -17 -6 -19 -3 -14 22 4 15 8 34 11 41 4 15 66 16 81 1
19 -19 33 0 33 46 0 36 3 43 15 39 23 -9 45 15 45 48 0 90 -77 204 -106 157z"/>
<path d="M3982 2510 c-14 -23 -16 -40 -4 -40 8 0 32 43 32 55 0 12 -16 3 -28
-15z"/>
<path d="M4778 4593 c7 -3 16 -2 19 1 4 3 -2 6 -13 5 -11 0 -14 -3 -6 -6z"/>
<path d="M4807 4536 c4 -30 -2 -68 -17 -118 -29 -95 -39 -113 -97 -178 -46
-51 -67 -107 -36 -96 11 4 11 1 3 -14 -6 -11 -15 -20 -19 -20 -5 0 -11 -8 -14
-19 -3 -11 -19 -22 -43 -28 l-39 -10 33 -13 c17 -6 32 -17 32 -23 0 -6 3 -8 6
-5 3 4 1 15 -5 26 -8 16 -6 21 14 30 14 7 25 16 25 21 0 5 6 16 13 23 27 28
47 67 37 73 -6 3 -10 2 -10 -3 0 -6 -7 -13 -16 -16 -9 -3 5 17 31 46 25 28 52
63 60 77 41 80 74 280 48 288 -7 3 -9 -11 -6 -41z"/>
<path d="M4510 4260 c-24 -15 -7 -19 25 -5 23 10 25 14 10 14 -11 0 -27 -3
-35 -9z"/>
<path d="M4518 4223 c6 -2 18 -2 25 0 6 3 1 5 -13 5 -14 0 -19 -2 -12 -5z"/>
<path d="M4520 4180 c0 -5 5 -10 11 -10 5 0 7 5 4 10 -3 6 -8 10 -11 10 -2 0
-4 -4 -4 -10z"/>
<path d="M2272 3964 c-35 -47 -52 -107 -34 -118 10 -6 20 5 65 69 13 17 23 23
30 17 7 -5 24 -12 38 -16 29 -6 39 -29 39 -88 0 -20 3 -43 6 -52 8 -21 38 -20
59 1 14 14 18 14 26 2 6 -10 9 -2 9 24 0 36 -20 52 -35 27 -14 -22 -22 2 -13
37 7 31 5 47 -12 86 -21 47 -23 49 -55 43 -19 -4 -36 -2 -40 4 -15 24 -51 8
-83 -36z"/>
<path d="M2146 3858 c-3 -13 -10 -57 -17 -100 -11 -75 -11 -77 14 -110 14 -18
35 -69 47 -112 35 -131 41 -125 35 29 -5 110 -12 158 -33 228 -27 89 -38 105
-46 65z"/>
<path d="M2551 3154 c-17 -12 -26 -13 -34 -5 -15 15 -60 14 -55 -1 8 -24 67
-30 108 -11 22 10 40 21 40 26 0 13 -35 8 -59 -9z"/>
<path d="M2517 3097 c-3 -8 -2 -19 3 -26 8 -15 37 -3 60 23 11 14 8 16 -23 16
-20 0 -37 -6 -40 -13z"/>
<path d="M2472 3069 c2 -7 10 -15 17 -17 8 -3 12 1 9 9 -2 7 -10 15 -17 17 -8
3 -12 -1 -9 -9z"/>
<path d="M4634 2397 c-1 -38 0 -40 8 -15 5 15 6 34 1 42 -6 10 -9 1 -9 -27z"/>
<path d="M4661 2404 c0 -11 3 -14 6 -6 3 7 2 16 -1 19 -3 4 -6 -2 -5 -13z"/>
<path d="M4642 2290 c0 -14 2 -19 5 -12 2 6 2 18 0 25 -3 6 -5 1 -5 -13z"/>
<path d="M4240 2389 c-35 -30 -88 -37 -82 -11 1 6 -2 12 -8 12 -12 0 -13 -20
-2 -36 23 -34 84 -17 116 31 24 37 17 38 -24 4z"/>
<path d="M2633 2284 c-6 -16 12 -34 35 -34 6 0 12 11 12 25 0 18 -5 25 -20 25
-11 0 -23 -7 -27 -16z"/>
<path d="M1286 2156 c-31 -53 -33 -65 -6 -41 17 15 20 16 20 3 0 -23 31 -31
49 -13 13 13 16 11 26 -18 8 -26 15 -32 40 -32 17 0 41 5 55 11 45 20 88 24
94 9 8 -21 77 -47 108 -41 15 3 28 0 30 -5 2 -6 17 -9 33 -7 32 4 28 7 -43 28
-23 8 -47 19 -53 27 -6 7 -19 13 -29 13 -10 0 -20 9 -23 21 -3 12 -11 19 -19
16 -7 -3 -38 -13 -68 -22 -30 -9 -63 -20 -72 -25 -31 -17 -38 -11 -38 29 0 46
-14 60 -39 37 -27 -24 -34 -19 -27 19 9 48 -7 44 -38 -9z"/>
<path d="M2735 2151 c-3 -5 5 -17 17 -25 26 -19 37 -4 15 19 -18 17 -24 18
-32 6z"/>
<path d="M2660 2139 c0 -5 5 -7 10 -4 6 3 10 8 10 11 0 2 -4 4 -10 4 -5 0 -10
-5 -10 -11z"/>
<path d="M2705 2140 c3 -5 8 -10 11 -10 2 0 4 5 4 10 0 6 -5 10 -11 10 -5 0
-7 -4 -4 -10z"/>
<path d="M2827 2034 c-6 -6 35 -44 47 -44 14 0 4 30 -13 40 -23 12 -26 12 -34
4z"/>
<path d="M1803 2013 c9 -2 17 -12 17 -22 0 -15 8 -17 61 -13 37 3 65 0 72 -7
6 -6 18 -11 26 -11 13 0 12 3 -2 18 -13 13 -34 17 -82 17 -43 0 -66 4 -70 12
-2 7 -12 12 -22 12 -17 -1 -17 -2 0 -6z"/>
<path d="M1262 1973 c-49 -69 -64 -210 -42 -380 13 -93 31 -122 91 -143 24 -8
50 -19 56 -23 7 -5 66 -17 130 -28 161 -28 412 -28 457 -1 6 3 19 7 30 8 12 1
33 5 49 8 16 4 27 2 27 -4 0 -5 -4 -10 -10 -10 -5 0 -6 -8 -3 -17 6 -15 7 -15
14 3 7 18 8 18 8 -1 1 -17 3 -17 11 -5 13 20 13 33 -1 24 -7 -4 -9 0 -5 14 4
11 0 37 -8 58 -29 76 -47 186 -41 243 5 48 4 53 -7 36 -14 -22 -13 -191 1
-209 5 -6 8 -18 8 -26 0 -9 3 -27 6 -41 5 -21 2 -27 -26 -38 -18 -7 -50 -14
-72 -17 -22 -2 -71 -7 -108 -12 -58 -7 -67 -6 -62 6 5 12 3 13 -10 2 -11 -9
-33 -11 -78 -6 -146 15 -290 44 -344 67 -24 11 -47 19 -51 19 -24 0 -41 42
-52 130 -14 110 -8 196 22 286 21 64 35 76 58 49 13 -15 145 -81 195 -97 55
-17 277 -56 291 -51 32 12 8 21 -103 38 -174 26 -286 64 -387 130 -23 15 -25
15 -44 -12z"/>
<path d="M3702 1953 c-5 -10 -13 -32 -16 -49 -7 -33 -86 -119 -118 -130 -24
-7 -18 -28 8 -32 12 -2 36 14 64 43 30 31 52 45 71 45 14 0 40 7 58 16 40 20
47 14 31 -25 -12 -30 -7 -51 12 -51 6 0 35 16 64 36 30 19 67 40 84 45 35 13
40 29 8 29 -24 0 -66 -20 -112 -54 -28 -19 -49 -15 -28 6 16 16 15 68 -1 68
-7 0 -30 -9 -52 -20 -35 -18 -65 -26 -65 -17 0 2 7 18 16 35 17 35 16 63 -3
69 -6 2 -16 -4 -21 -14z"/>
<path d="M2470 1940 c-12 -8 -11 -10 7 -10 12 0 25 5 28 10 8 13 -15 13 -35 0z"/>
<path d="M2635 1940 c-9 -14 3 -30 23 -29 14 0 13 2 -3 9 -11 5 -14 9 -7 9 14
1 17 21 3 21 -6 0 -13 -4 -16 -10z"/>
<path d="M2715 1940 c3 -5 10 -10 16 -10 5 0 9 5 9 10 0 6 -7 10 -16 10 -8 0
-12 -4 -9 -10z"/>
<path d="M3158 1939 c-10 -5 -18 -15 -18 -20 0 -6 -7 -17 -15 -25 -19 -19 -20
-64 -1 -64 8 0 14 11 14 27 0 24 13 41 51 62 8 5 11 13 7 20 -9 13 -16 13 -38
0z"/>
<path d="M2580 1920 c20 -13 33 -13 25 0 -3 6 -14 10 -23 10 -15 0 -15 -2 -2
-10z"/>
<path d="M2508 1913 c7 -3 16 -2 19 1 4 3 -2 6 -13 5 -11 0 -14 -3 -6 -6z"/>
<path d="M2728 1913 c6 -2 18 -2 25 0 6 3 1 5 -13 5 -14 0 -19 -2 -12 -5z"/>
<path d="M2452 1885 c0 -16 2 -22 5 -12 2 9 2 23 0 30 -3 6 -5 -1 -5 -18z"/>
<path d="M2467 1840 c-9 -34 1 -70 19 -63 11 4 11 7 -1 20 -20 19 -19 32 3 28
9 -1 12 0 5 2 -6 2 -13 12 -15 21 -3 12 -6 10 -11 -8z"/>
<path d="M3070 1840 c-8 -5 -12 -11 -9 -14 2 -3 11 -1 19 4 8 5 12 11 9 14 -2
3 -11 1 -19 -4z"/>
<path d="M3420 1842 c0 -5 11 -14 25 -20 26 -12 34 -32 12 -32 -7 0 -27 -11
-45 -23 -27 -20 -30 -26 -19 -41 20 -28 50 -26 64 3 11 24 11 25 12 4 1 -31
16 -36 56 -22 37 14 41 32 9 38 -25 4 -57 38 -49 52 9 14 -24 49 -47 49 -10 0
-18 -4 -18 -8z"/>
<path d="M1824 1819 c-8 -13 29 -19 122 -19 72 0 94 3 94 14 0 10 -23 13 -106
12 -58 -1 -108 -4 -110 -7z"/>
<path d="M3355 1810 c-26 -29 -15 -31 24 -3 27 18 30 23 14 23 -11 0 -28 -9
-38 -20z"/>
<path d="M3106 1812 c-4 -7 -11 -10 -16 -7 -5 3 -14 -4 -20 -15 -7 -13 -7 -20
0 -20 5 0 10 5 10 12 0 6 3 9 6 5 9 -9 -22 -48 -31 -39 -5 4 -5 1 -1 -6 4 -7
0 -25 -11 -40 -25 -38 -31 -64 -20 -86 8 -16 14 -8 41 50 48 102 58 132 54
145 -3 10 -6 10 -12 1z"/>
<path d="M1302 1781 c-6 -18 -15 -61 -18 -96 -8 -75 5 -89 44 -52 22 20 30 23
45 13 13 -9 26 -6 60 12 54 28 57 28 57 -9 0 -26 3 -30 20 -26 17 4 18 2 9
-14 -13 -26 -4 -24 37 9 37 30 38 31 25 51 -7 11 -14 10 -39 -7 -34 -25 -42
-21 -42 25 l0 33 -50 -25 c-61 -31 -64 -31 -56 -1 10 42 -12 39 -54 -6 -44
-47 -46 -44 -29 46 12 68 7 94 -9 47z"/>
<path d="M3040 1795 c-7 -9 -11 -18 -8 -20 3 -3 11 1 18 10 7 9 11 18 8 20 -3
3 -11 -1 -18 -10z"/>
<path d="M2440 1779 c0 -11 4 -18 10 -14 5 3 7 12 3 20 -7 21 -13 19 -13 -6z"/>
<path d="M2540 1790 c0 -5 5 -10 10 -10 6 0 10 5 10 10 0 6 -4 10 -10 10 -5 0
-10 -4 -10 -10z"/>
<path d="M2910 1781 c0 -8 41 -23 47 -17 2 1 -8 8 -22 14 -14 6 -25 8 -25 3z"/>
<path d="M3302 1737 c-18 -36 -20 -50 -12 -72 6 -15 15 -23 21 -19 8 4 8 9 0
17 -16 16 -14 49 5 75 8 12 14 27 12 33 -2 6 -14 -9 -26 -34z"/>
<path d="M2992 1736 c-16 -35 -15 -51 2 -65 19 -16 25 4 17 54 l-6 39 -13 -28z"/>
<path d="M1762 1734 c-17 -12 -22 -23 -18 -39 4 -14 -1 -28 -13 -39 -17 -16
-19 -16 -24 4 -4 14 -13 20 -35 20 -17 0 -34 -4 -37 -10 -3 -5 3 -10 14 -10
17 0 13 -6 -20 -38 -29 -26 -38 -42 -34 -55 9 -21 25 -22 51 -2 10 8 26 15 35
15 9 0 24 9 33 19 10 11 30 19 45 19 29 -1 148 49 139 58 -3 3 -31 -2 -63 -11
-31 -9 -59 -14 -62 -11 -4 3 -1 17 6 30 7 12 11 33 9 45 -3 21 -4 21 -26 5z"/>
<path d="M2630 1741 c0 -6 6 -11 14 -11 11 0 11 -7 -4 -38 -26 -53 -11 -167
18 -137 3 3 0 10 -8 15 -10 7 -11 10 -2 10 6 0 12 11 12 25 0 14 7 37 16 50
15 24 15 25 -2 26 -16 0 -15 2 4 9 36 15 30 24 -40 58 -5 2 -8 -2 -8 -7z m30
-77 c0 -3 -7 -12 -15 -20 -16 -17 -18 -14 -9 10 6 15 24 23 24 10z"/>
<path d="M2888 1743 c6 -2 18 -2 25 0 6 3 1 5 -13 5 -14 0 -19 -2 -12 -5z"/>
<path d="M3031 1734 c0 -11 3 -14 6 -6 3 7 2 16 -1 19 -3 4 -6 -2 -5 -13z"/>
<path d="M2611 1730 c0 -8 4 -22 9 -30 12 -18 12 -2 0 25 -6 13 -9 15 -9 5z"/>
<path d="M2495 1689 c-11 -16 -1 -19 13 -3 7 8 8 14 3 14 -5 0 -13 -5 -16 -11z"/>
<path d="M3728 1688 c-16 -5 -28 -14 -28 -19 0 -11 -2 -11 36 0 19 5 65 3 124
-5 113 -16 130 -17 130 -6 0 12 -142 42 -193 41 -23 0 -54 -5 -69 -11z"/>
<path d="M2702 1658 c-14 -14 -16 -28 -3 -28 5 0 11 9 14 20 6 23 5 24 -11 8z"/>
<path d="M3097 1646 c-3 -8 -2 -18 4 -22 16 -9 22 2 11 21 -8 15 -10 16 -15 1z"/>
<path d="M3138 1653 c6 -2 18 -2 25 0 6 3 1 5 -13 5 -14 0 -19 -2 -12 -5z"/>
<path d="M3785 1640 c-3 -5 -2 -10 4 -10 5 0 13 5 16 10 3 6 2 10 -4 10 -5 0
-13 -4 -16 -10z"/>
<path d="M1920 1615 c-7 -8 -8 -15 -2 -15 5 0 15 7 22 15 7 8 8 15 2 15 -5 0
-15 -7 -22 -15z"/>
<path d="M3213 1623 c9 -2 23 -2 30 0 6 3 -1 5 -18 5 -16 0 -22 -2 -12 -5z"/>
<path d="M2365 1610 c-3 -5 1 -10 9 -10 9 0 16 5 16 10 0 6 -4 10 -9 10 -6 0
-13 -4 -16 -10z"/>
<path d="M2710 1615 c-10 -39 -6 -55 14 -55 13 0 16 3 10 8 -7 4 -14 18 -17
32 -2 14 -5 21 -7 15z"/>
<path d="M1870 1590 c0 -5 4 -10 9 -10 6 0 13 5 16 10 3 6 -1 10 -9 10 -9 0
-16 -4 -16 -10z"/>
<path d="M2789 1579 c16 -6 28 -6 35 1 7 7 -1 10 -24 9 -33 0 -34 -1 -11 -10z"/>
<path d="M2066 1523 c-6 -14 -5 -15 5 -6 7 7 10 15 7 18 -3 3 -9 -2 -12 -12z"/>
<path d="M2255 1489 c-12 -19 5 -23 22 -6 16 16 16 17 1 17 -9 0 -20 -5 -23
-11z"/>
<path d="M2011 1474 c0 -11 3 -14 6 -6 3 7 2 16 -1 19 -3 4 -6 -2 -5 -13z"/>
<path d="M1210 1441 c0 -6 4 -13 10 -16 6 -3 7 1 4 9 -7 18 -14 21 -14 7z"/>
<path d="M2104 1419 c-4 -7 0 -9 14 -5 11 4 23 2 27 -4 3 -6 11 -8 16 -4 5 3
7 10 4 15 -8 13 -52 11 -61 -2z"/>
<path d="M2021 1384 c0 -11 3 -14 6 -6 3 7 2 16 -1 19 -3 4 -6 -2 -5 -13z"/>
<path d="M1230 1381 c0 -5 5 -13 10 -16 6 -3 10 -2 10 4 0 5 -4 13 -10 16 -5
3 -10 2 -10 -4z"/>
<path d="M1990 1360 c-8 -15 -8 -20 3 -20 7 0 13 9 13 20 0 11 -1 20 -3 20 -1
0 -7 -9 -13 -20z"/>
<path d="M1951 1344 c0 -11 3 -14 6 -6 3 7 2 16 -1 19 -3 4 -6 -2 -5 -13z"/>
<path d="M2033 1349 c11 -7 23 -7 35 0 14 9 11 10 -18 10 -29 0 -32 -1 -17
-10z"/>
<path d="M1881 1292 c-14 -26 -14 -32 1 -32 6 0 8 3 5 7 -4 3 -2 12 5 20 6 7
8 16 5 19 -3 3 -10 -3 -16 -14z"/>
<path d="M4382 2420 c-7 -11 -8 -20 -3 -20 9 0 24 30 18 36 -1 2 -8 -6 -15
-16z"/>
<path d="M4521 2414 c0 -11 3 -14 6 -6 3 7 2 16 -1 19 -3 4 -6 -2 -5 -13z"/>
<path d="M4540 2290 c0 -11 2 -20 4 -20 2 0 6 9 9 20 3 11 1 20 -4 20 -5 0 -9
-9 -9 -20z"/>
<path d="M4296 2171 c-4 -7 -5 -15 -2 -18 9 -9 19 4 14 18 -4 11 -6 11 -12 0z"/>
<path d="M4267 2163 c-4 -3 -7 -18 -6 -32 1 -26 1 -25 10 3 9 31 7 41 -4 29z"/>
<path d="M4340 2098 c0 -29 15 -45 25 -28 3 5 -1 20 -9 32 l-16 22 0 -26z"/>
<path d="M4591 2098 c0 -9 -4 -25 -7 -35 -5 -17 -5 -17 6 0 6 10 9 25 7 35 -4
15 -5 15 -6 0z"/>
<path d="M4281 2074 c0 -11 3 -14 6 -6 3 7 2 16 -1 19 -3 4 -6 -2 -5 -13z"/>
<path d="M4591 1994 c0 -11 3 -14 6 -6 3 7 2 16 -1 19 -3 4 -6 -2 -5 -13z"/>
<path d="M4436 2372 c-4 -13 -5 -26 -2 -29 10 -11 18 4 14 29 l-4 23 -8 -23z"/>
<path d="M4395 2310 c-11 -17 5 -31 19 -17 14 12 12 27 -4 27 -5 0 -12 -4 -15
-10z"/>
<path d="M2322 2238 c2 -17 11 -24 31 -26 36 -4 37 25 1 38 -35 14 -36 13 -32
-12z"/>
<path d="M2313 2114 c-8 -22 15 -43 27 -24 5 8 10 21 10 28 0 17 -30 15 -37
-4z"/>
<path d="M2371 2114 c0 -11 3 -14 6 -6 3 7 2 16 -1 19 -3 4 -6 -2 -5 -13z"/>
<path d="M4436 2192 c-2 -4 2 -16 10 -27 13 -18 14 -18 14 8 0 25 -13 36 -24
19z"/>
</g>
</svg>
